<?xml version="1.0" encoding="UTF-8" standalone="no"?>
<svg width="256px" height="256px" viewBox="0 0 256 256" version="1.1" xmlns="http://www.w3.org/2000/svg" xmlns:xlink="http://www.w3.org/1999/xlink" xmlns:sketch="http://www.bohemiancoding.com/sketch/ns">
    <!-- Generator: Sketch 3.2 (9964) - http://www.bohemiancoding.com/sketch -->
    <title>256</title>
    <desc>Created with Sketch.</desc>
    <defs></defs>
    <g id="Page-1" stroke="none" stroke-width="1" fill="none" fill-rule="evenodd" sketch:type="MSPage">
        <g id="256" sketch:type="MSArtboardGroup" fill="#FFFFFF">
            <g id="1429024396_linkedin_circle_gray" sketch:type="MSLayerGroup" transform="translate(19.000000, 24.000000)">
                <path d="M219,208.993113 L219,128.328869 C219,85.1109623 195.885404,65 165.070543,65 C140.203378,65 129.060072,78.6575474 122.850181,88.2378037 L122.850181,68.3059116 L76,68.3059116 C76.6209891,81.5088961 76,208.993113 76,208.993113 L122.850181,208.993113 L122.850181,130.422613 C122.850181,126.228238 123.153776,122.026975 124.395754,119.024106 C127.776695,110.62158 135.48386,101.9229 148.421134,101.9229 C165.381037,101.9229 172.156719,114.822843 172.156719,133.728525 L172.156719,209 L219,209 L219,208.993113 Z M26.3404032,49 C42.7649908,49 53,38.1018558 53,24.4895878 C52.6946845,10.585777 42.7649908,0 26.6526578,0 C10.5403247,0 0,10.5788355 0,24.4895878 C0,38.1018558 10.2280702,49 26.0420267,49 L26.3404032,49 L26.3404032,49 Z M50,209 L50,68 L3,68 L3,209 L50,209 L50,209 Z" id="Shape" sketch:type="MSShapeGroup"></path>
            </g>
        </g>
    </g>
</svg>