<svg preserveAspectRatio="xMinYMin meet" viewBox="0 0 550 126" version="1.1" xmlns="http://www.w3.org/2000/svg" xmlns:xlink="http://www.w3.org/1999/xlink" xmlns:sketch="http://www.bohemiancoding.com/sketch/ns">
    <g id="Page-1" stroke="none" stroke-width="1" fill="none" fill-rule="evenodd" sketch:type="MSPage">
        <g id="512" sketch:type="MSArtboardGroup">
            <g id="Group-2" sketch:type="MSLayerGroup" transform="translate(-22.000000, -11.000000)">
                <g id="Rectangle-1-+-Rectangle-30-+-Rectangle-30" transform="translate(74.727443, 70.714249) rotate(-31.000000) translate(-74.727443, -70.714249) translate(16.227443, 24.214249)" sketch:type="MSShapeGroup">
                    <path d="M18,46 L116,64.9009154 L37.8480697,93 L18,46 L18,46 Z" id="Rectangle-1" stroke="#979797" fill="#42A2C9"></path>
                    <path d="M116,64 L14.3507695,35 L0,62.1168826 L116,64 Z" id="Rectangle-30" fill="#B3E5F9"></path>
                    <path d="M68.3157415,46.2041038 L75.0678892,0.255589249 L115.315742,60.2555892 L68.3157415,46.2041038 Z" id="Rectangle-30" fill="#B3E5F9"></path>
                </g>
            </g>
            <g id="text" sketch:type="MSLayerGroup" transform="translate(120.000000, 57.000000)">
                <path d="M13.5996094,21.1552734 C9.57940698,19.9996687 6.65381775,18.5795983 4.82275391,16.8950195 C2.99169006,15.2104408 2.07617188,13.1311973 2.07617188,10.6572266 C2.07617188,7.8577334 3.19513855,5.54248962 5.43310547,3.71142578 C7.67107239,1.88036194 10.5803857,0.96484375 14.1611328,0.96484375 C16.6025513,0.96484375 18.7794501,1.43684424 20.6918945,2.38085938 C22.604339,3.32487451 24.085444,4.62694482 25.1352539,6.28710938 C26.1850638,7.94727393 26.7099609,9.76203442 26.7099609,11.7314453 L21.9980469,11.7314453 C21.9980469,9.58299707 21.31446,7.89437463 19.9472656,6.66552734 C18.5800713,5.43668005 16.6513796,4.82226562 14.1611328,4.82226562 C11.8499233,4.82226562 10.0473698,5.33088684 8.75341797,6.34814453 C7.45946619,7.36540222 6.8125,8.77733472 6.8125,10.5839844 C6.8125,12.0325593 7.42691443,13.2573192 8.65576172,14.2583008 C9.88460901,15.2592823 11.9760594,16.1748005 14.9301758,17.0048828 C17.8842921,17.8349651 20.1954669,18.7504833 21.8637695,19.7514648 C23.5320721,20.7524464 24.7690389,21.9202407 25.574707,23.2548828 C26.3803751,24.5895249 26.7832031,26.1601472 26.7832031,27.9667969 C26.7832031,30.8476707 25.6601675,33.1547765 23.4140625,34.8881836 C21.1679575,36.6215907 18.1650579,37.4882812 14.4052734,37.4882812 C11.963855,37.4882812 9.68523193,37.0203497 7.56933594,36.0844727 C5.45343994,35.1485956 3.82178308,33.8668701 2.67431641,32.2392578 C1.52684973,30.6116455 0.953125,28.7643333 0.953125,26.6972656 L5.66503906,26.6972656 C5.66503906,28.8457139 6.45848816,30.5424742 8.04541016,31.7875977 C9.63233215,33.0327211 11.7522654,33.6552734 14.4052734,33.6552734 C16.8792441,33.6552734 18.775384,33.1507212 20.09375,32.1416016 C21.412116,31.1324819 22.0712891,29.7571702 22.0712891,28.015625 C22.0712891,26.2740798 21.4609436,24.9272509 20.2402344,23.9750977 C19.0195251,23.0229445 16.8060056,22.0830125 13.5996094,21.1552734 L13.5996094,21.1552734 Z M56.2496094,5.31054688 L44.8238281,5.31054688 L44.8238281,37 L40.1607422,37 L40.1607422,5.31054688 L28.759375,5.31054688 L28.759375,1.453125 L56.2496094,1.453125 L56.2496094,5.31054688 Z M78.1232421,27.7226562 L63.230664,27.7226562 L59.8859375,37 L55.0519531,37 L68.6261718,1.453125 L72.7277343,1.453125 L86.3263671,37 L81.5167968,37 L78.1232421,27.7226562 Z M64.6466796,23.8652344 L76.7316406,23.8652344 L70.6769531,7.23925781 L64.6466796,23.8652344 Z M103.048633,22.6201172 L94.6990234,22.6201172 L94.6990234,37 L89.9871093,37 L89.9871093,1.453125 L101.754687,1.453125 C105.758614,1.453125 108.838824,2.36457422 110.99541,4.1875 C113.151996,6.01042578 114.230273,8.66339404 114.230273,12.1464844 C114.230273,14.3600371 113.632135,16.2887288 112.43584,17.9326172 C111.239545,19.5765056 109.575336,20.8053345 107.443164,21.6191406 L115.792773,36.7070312 L115.792773,37 L110.763476,37 L103.048633,22.6201172 Z M94.6990234,18.7871094 L101.901172,18.7871094 C104.228657,18.7871094 106.080039,18.1849019 107.455371,16.9804688 C108.830703,15.7760356 109.518359,14.1647236 109.518359,12.1464844 C109.518359,9.94920776 108.863255,8.2646543 107.553027,7.09277344 C106.242799,5.92089258 104.350728,5.326823 101.876758,5.31054688 L94.6990234,5.31054688 L94.6990234,18.7871094 Z M142.305078,5.31054688 L130.879297,5.31054688 L130.879297,37 L126.216211,37 L126.216211,5.31054688 L114.814844,5.31054688 L114.814844,1.453125 L142.305078,1.453125 L142.305078,5.31054688 Z M146.478516,37 L146.478516,1.453125 L156.512695,1.453125 C159.605159,1.453125 162.339506,2.13671191 164.71582,3.50390625 C167.092134,4.87110059 168.92724,6.81606812 170.221191,9.33886719 C171.515143,11.8616663 172.170247,14.7587727 172.186523,18.0302734 L172.186523,20.3007812 C172.186523,23.6536626 171.539557,26.5914587 170.245605,29.1142578 C168.951654,31.6370569 167.104341,33.5738865 164.703613,34.9248047 C162.302885,36.2757229 159.507503,36.9674478 156.317383,37 L146.478516,37 Z M151.166016,5.31054688 L151.166016,33.1669922 L156.097656,33.1669922 C159.710955,33.1669922 162.522614,32.0439565 164.532715,29.7978516 C166.542816,27.5517466 167.547851,24.3535364 167.547851,20.203125 L167.547851,18.1279297 C167.547851,14.0914512 166.599781,10.9542755 164.703613,8.71630859 C162.807445,6.47834167 160.117856,5.34309912 156.634766,5.31054688 L151.166016,5.31054688 Z M198.259375,20.5693359 L182.854101,20.5693359 L182.854101,33.1669922 L200.749609,33.1669922 L200.749609,37 L178.166601,37 L178.166601,1.453125 L200.505469,1.453125 L200.505469,5.31054688 L182.854101,5.31054688 L182.854101,16.7363281 L198.259375,16.7363281 L198.259375,20.5693359 Z M217.252148,30.7744141 L227.408398,1.453125 L232.535351,1.453125 L219.351758,37 L215.201367,37 L202.042187,1.453125 L207.144726,1.453125 L217.252148,30.7744141 Z M256.288867,20.5693359 L240.883594,20.5693359 L240.883594,33.1669922 L258.779101,33.1669922 L258.779101,37 L236.196094,37 L236.196094,1.453125 L258.534961,1.453125 L258.534961,5.31054688 L240.883594,5.31054688 L240.883594,16.7363281 L256.288867,16.7363281 L256.288867,20.5693359 Z M268.225976,33.1669922 L285.071679,33.1669922 L285.071679,37 L263.514062,37 L263.514062,1.453125 L268.225976,1.453125 L268.225976,33.1669922 Z" id="STARTDEVEL-2" fill="#42A2C9" sketch:type="MSShapeGroup"></path>
                <path d="M313.285547,1.453125 L313.285547,25.6230469 C313.269271,28.9759282 312.215408,31.7184138 310.123926,33.8505859 C308.032444,35.9827581 305.196372,37.1790352 301.615625,37.4394531 L300.370508,37.4882812 C296.480514,37.4882812 293.379959,36.4384871 291.06875,34.3388672 C288.757541,32.2392473 287.585677,29.3502788 287.553125,25.671875 L287.553125,1.453125 L292.191797,1.453125 L292.191797,25.5253906 C292.191797,28.0970181 292.899798,30.0948822 294.31582,31.519043 C295.731843,32.9432037 297.750052,33.6552734 300.370508,33.6552734 C303.023516,33.6552734 305.053932,32.9472727 306.461816,31.53125 C307.869701,30.1152273 308.573633,28.1214321 308.573633,25.5498047 L308.573633,1.453125 L313.285547,1.453125 Z M324.270508,23.0839844 L324.270508,37 L319.583008,37 L319.583008,1.453125 L332.693359,1.453125 C336.583353,1.453125 339.631011,2.44595361 341.836426,4.43164062 C344.04184,6.41732764 345.144531,9.04588208 345.144531,12.3173828 C345.144531,15.7679209 344.066254,18.4249581 341.909668,20.2885742 C339.753082,22.1521903 336.664734,23.0839844 332.644531,23.0839844 L324.270508,23.0839844 Z M324.270508,19.2509766 L332.693359,19.2509766 C335.199882,19.2509766 337.120436,18.660976 338.455078,17.480957 C339.78972,16.3009381 340.457031,14.5960398 340.457031,12.3662109 C340.457031,10.2503149 339.78972,8.55762354 338.455078,7.28808594 C337.120436,6.01854834 335.2894,5.35937524 332.961914,5.31054688 L324.270508,5.31054688 L324.270508,19.2509766 Z" fill="#B3E5F9" sketch:type="MSShapeGroup"></path>
            </g>
        </g>
    </g>
</svg>